<svg width="88" height="88" viewBox="0 0 88 88" fill="none" xmlns="http://www.w3.org/2000/svg">
<path d="M35.475 50.2335L38.6833 39.7835L30.25 33.0002H40.7L44 22.7335L47.3 33.0002H57.75L49.225 39.7835L52.4333 50.2335L44 43.7252L35.475 50.2335ZM22 84.3335V56.0085C19.6777 53.4418 17.875 50.5085 16.5916 47.2085C15.3083 43.9085 14.6666 40.3946 14.6666 36.6668C14.6666 28.4779 17.5083 21.5418 23.1916 15.8585C28.875 10.1752 35.8111 7.3335 44 7.3335C52.1889 7.3335 59.125 10.1752 64.8083 15.8585C70.4916 21.5418 73.3333 28.4779 73.3333 36.6668C73.3333 40.3946 72.6916 43.9085 71.4083 47.2085C70.125 50.5085 68.3222 53.4418 66 56.0085V84.3335L44 77.0002L22 84.3335ZM44 58.6668C50.1111 58.6668 55.3055 56.5279 59.5833 52.2502C63.8611 47.9724 66 42.7779 66 36.6668C66 30.5557 63.8611 25.3613 59.5833 21.0835C55.3055 16.8057 50.1111 14.6668 44 14.6668C37.8888 14.6668 32.6944 16.8057 28.4166 21.0835C24.1388 25.3613 22 30.5557 22 36.6668C22 42.7779 24.1388 47.9724 28.4166 52.2502C32.6944 56.5279 37.8888 58.6668 44 58.6668ZM29.3333 73.4252L44 69.6668L58.6666 73.4252V62.0585C56.5277 63.2807 54.2208 64.2432 51.7458 64.946C49.2708 65.6488 46.6889 66.0002 44 66.0002C41.3111 66.0002 38.7291 65.6488 36.2541 64.946C33.7791 64.2432 31.4722 63.2807 29.3333 62.0585V73.4252Z" fill="white"/>
</svg>
